<svg width="52" height="48" viewBox="0 0 52 48" fill="none" xmlns="http://www.w3.org/2000/svg">
<path fill-rule="evenodd" clip-rule="evenodd" d="M49.7705 35.6116L48.2083 37.1825C47.5107 37.8851 46.3753 37.8851 45.6777 37.1825L42.2803 33.7615L37.9362 38.136L41.3335 41.5571C42.0312 42.2596 42.0333 43.4007 41.3335 44.1055L39.7713 45.6764L42.0052 48L52 37.8567L49.7705 35.6116ZM14.2805 12.5564L2.16667 0H7.75883L17.3702 9.53891C19.3505 8.02909 22.36 6.35782 24.7108 6.37527L41.2468 23.0269C41.9488 23.7316 43.0798 23.7316 43.7797 23.0269L45.0818 21.7178L48.126 24.7833L29.406 43.6364L26.3597 40.5709L27.664 39.2596C28.3617 38.5549 28.3617 37.4138 27.664 36.7091L11.1237 20.0553C11.1063 17.688 12.779 14.5505 14.2805 12.5564ZM30.3853 33.2662L31.9085 34.8022L39.3618 27.2945L23.2657 11.0836C20.28 12.3731 16.9 15.7789 15.8102 18.5913L19.7232 22.5316L23.4412 18.7833L24.9448 20.2953L21.2247 24.0436L22.7868 25.6167L26.5048 21.8684L28.0085 23.3804L24.2862 27.1265L25.8202 28.6713L29.5382 24.9251L31.0418 26.4349L27.3217 30.1833L28.8838 31.7542L32.6018 28.008L34.1055 29.52L30.3853 33.2662ZM3.7245 5.57673C5.99083 8.98036 7.44467 11.1098 7.44467 13.1804C7.44467 15.2509 5.78067 16.9287 3.7245 16.9287C1.66617 16.9287 0 15.2509 0 13.1804C0 11.1098 1.45817 8.98036 3.7245 5.57673Z" fill="#E13856"/>
</svg>
