<svg width="58" height="48" viewBox="0 0 58 48" fill="none" xmlns="http://www.w3.org/2000/svg">
<path fill-rule="evenodd" clip-rule="evenodd" d="M52.7462 16.8009H47.705C48.1183 15.6321 48.3382 14.504 48.3382 13.4168C48.3382 7.83412 43.9447 4.35395 38.6135 4.84118C32.1344 5.434 27.695 13.7456 26.5833 15.6033C25.3098 13.532 21.1192 5.4316 14.5459 4.81718C9.44675 4.33955 4.83333 7.65171 4.83333 13.4144C4.83333 20.8763 15.3386 30.4168 26.5858 41.2917C29.3891 38.5868 32.1078 35.9922 34.6188 33.5081L36.9629 37.9651C33.7778 41.0901 30.2712 44.4118 26.5858 48C11.6894 33.5105 0 23.5141 0 13.4312C0 5.52521 5.94983 0.168157 13.7122 0.000149533C18.9394 -0.0214515 23.6809 2.29706 26.5858 7.08528C29.4302 2.39066 34.1886 0.0241507 39.2805 0.0241507C46.6852 0.0241507 53.1667 5.10039 53.1667 13.4528C53.1667 14.5664 53.0217 15.6801 52.7462 16.8009ZM25.9357 26.4014C25.0995 27.8367 23.5383 28.8015 21.75 28.8015C19.082 28.8015 16.9167 26.651 16.9167 24.0013C16.9167 21.3516 19.082 19.201 21.75 19.201C23.5383 19.201 25.0995 20.1659 25.9357 21.6012H28.8888L33.4322 15.0969C33.7705 14.612 34.3408 14.3408 34.9353 14.3792C35.5274 14.4176 36.0567 14.7656 36.3273 15.2913L41.8132 25.9406L43.7779 22.4604C44.0776 21.93 44.6407 21.6012 45.2545 21.6012H58V26.4014H47.0936L42.8427 33.3809C42.5237 33.9065 41.9412 34.2162 41.3226 34.1898C40.7063 34.1658 40.1529 33.8057 39.8774 33.2561L34.4254 22.314L32.0353 25.6886C31.7188 26.135 31.2016 26.4014 30.6506 26.4014H25.9357Z" fill="#E13856"/>
</svg>
