<svg width="48" height="48" viewBox="0 0 48 48" fill="none" xmlns="http://www.w3.org/2000/svg">
<path fill-rule="evenodd" clip-rule="evenodd" d="M21.998 8.884V7.464C20.802 6.772 19.998 5.48 19.998 4C19.998 1.792 21.79 0 23.998 0C26.206 0 27.998 1.792 27.998 4C27.998 5.48 27.194 6.772 25.998 7.464V8.884C26.286 8.838 26.534 8.778 26.718 8.706C29.13 7.788 30.462 4.134 34.614 4C39.034 3.942 41.45 8.502 44.96 9.538C45.906 9.816 47.014 9.822 48 9.882C46.73 18.098 34.814 21.626 25.998 19.332V33.178C27.684 33.702 29.82 34.4 31.082 35.58C35.098 39.334 32.742 44.976 28.004 45.154V43.154C30.536 41.9 31.012 39.232 25.998 37.398V46C25.998 47.106 25.102 48 23.998 48C22.894 48 21.998 47.106 21.998 46V36.208C18.088 35.188 11.27 33.868 11.32 28.202C11.356 24.81 14.42 22 17.982 22H18.002C19.108 22 20.002 22.896 20.002 24C20.002 25.098 19.118 25.988 18.024 26C16.352 26.018 15.24 27.302 15.326 28.384C15.522 30.632 19.766 31.496 21.998 32.072V19.334C13.184 21.626 1.27 18.096 0 9.882C0.986 9.822 2.094 9.816 3.04 9.538C6.55 8.502 8.966 3.942 13.386 4C17.538 4.134 18.87 7.788 21.282 8.706C21.466 8.778 21.712 8.836 21.998 8.884ZM15.92 36.73C17.646 37.23 19.23 37.656 20.62 37.978C17.238 39.716 17.63 41.982 19.998 43.154V45.154C15.722 44.994 13.388 40.386 15.92 36.73ZM28.066 31.518C29.844 31.004 32.53 30.23 32.676 28.384C32.762 27.298 31.644 26.018 29.976 26C28.882 25.988 27.998 25.098 27.998 24C27.998 22.896 28.894 22 29.998 22H30.02C33.564 22 36.646 24.798 36.68 28.202C36.714 30.748 34.978 32.936 32.708 34.07C31.508 33.06 29.914 32.252 28.066 31.518ZM39.612 14.224C40.636 13.744 41.534 13.156 42.228 12.452C39.416 11.68 37.082 8.016 34.694 7.998C32.212 8.078 30.626 12.704 26 12.92V15.306C27.21 15.746 29.054 15.978 31.102 15.952C30.854 14.984 30.748 13.946 30.73 12.742C31.556 13.964 32.64 15 33.776 15.774C34.732 15.66 35.692 15.49 36.62 15.26C35.832 14.086 35.42 12.854 35.162 11.502C36.452 12.822 37.988 13.638 39.612 14.224ZM21.998 12.92C17.374 12.704 15.786 8.078 13.306 7.998C10.918 8.016 8.584 11.68 5.772 12.452C6.466 13.156 7.364 13.744 8.388 14.224C10.012 13.638 11.548 12.822 12.838 11.502C12.58 12.854 12.168 14.086 11.38 15.26C12.308 15.49 13.268 15.66 14.224 15.774C15.36 15 16.444 13.964 17.27 12.742C17.252 13.946 17.146 14.984 16.898 15.952C18.944 15.978 20.788 15.746 21.998 15.308V12.92Z" fill="#E13856"/>
</svg>
