<svg width="48" height="28" viewBox="0 0 48 28" fill="none" xmlns="http://www.w3.org/2000/svg">
<path fill-rule="evenodd" clip-rule="evenodd" d="M0 13.102C0 13.102 8.892 0 24.03 0C39.418 0 48 13.102 48 13.102C48 13.102 39.496 28 24.03 28C9.67 28 0 13.102 0 13.102ZM43.038 13.272C40.156 10.024 33.532 4 24.03 4C14.708 4 8.06 9.892 5.074 13.186C8.17 16.928 15.19 24 24.03 24C33.612 24 40.236 16.946 43.038 13.272ZM24 10C26.206 10 28 11.794 28 14C28 16.206 26.206 18 24 18C21.794 18 20 16.206 20 14C20 11.794 21.794 10 24 10ZM16 14C16 9.584 19.582 6 24 6C28.418 6 32 9.584 32 14C32 18.418 28.418 22 24 22C19.582 22 16 18.418 16 14Z" fill="#E13856"/>
</svg>
