<svg width="46" height="48" viewBox="0 0 46 48" fill="none" xmlns="http://www.w3.org/2000/svg">
<path fill-rule="evenodd" clip-rule="evenodd" d="M35.0551 0.061377C38.2766 0.061377 40.9722 1.66793 43.538 5.11738C47.511 10.4498 45.3678 16.4998 43.6456 21.3614L43.6455 21.3616L43.6158 21.4455C42.8672 23.547 42.1604 25.5318 42.1604 26.9647C42.1604 31.8466 41.5997 47.7752 34.3856 47.7752C29.2154 47.7752 27.9895 42.3491 27.0043 37.9887C25.8659 32.998 25.0447 30.9162 22.8985 30.9162C20.4108 30.9162 19.358 34.1317 18.1423 38.6744C16.9973 42.9896 15.703 47.867 11.4962 47.867C5.34932 47.867 3.70936 34.7347 3.70936 26.9747C3.70936 25.4633 2.97835 23.4618 2.20424 21.3424C0.465965 16.5789 -1.68894 10.6723 2.10646 5.15646C4.51922 1.63908 7.15147 0 10.3891 0C12.4509 0 14.5107 0.683279 16.5029 1.34452L16.5071 1.34595C18.5366 2.02511 20.6218 2.72289 22.7492 2.72289C24.8724 2.72289 26.8402 2.0781 28.9233 1.3955L28.9268 1.39436L28.9915 1.37311L28.9932 1.37254C30.9465 0.728522 32.9699 0.061377 35.0551 0.061377ZM39.9008 20.1277L39.9282 20.0501C41.4846 15.6574 43.0938 11.115 40.3729 7.46387C38.0997 4.40787 36.409 3.99607 35.0551 3.99607C33.6041 3.99607 31.9626 4.53718 30.2251 5.1103L30.157 5.13259C27.9761 5.84734 25.5039 6.65731 22.7489 6.65731C19.977 6.65731 17.4728 5.81891 15.2631 5.07912L15.2614 5.07856C13.4866 4.48971 11.8127 3.93443 10.3891 3.93443C9.07059 3.93443 7.44167 4.34387 5.35905 7.38098C2.71103 11.2294 4.33391 15.6774 5.90343 19.9788L5.90376 19.9797C6.80602 22.4501 7.65274 24.7685 7.65274 26.9742C7.65274 31.5305 8.18766 36.0572 9.1208 39.3936C10.1693 43.1431 11.3146 43.9321 11.4965 43.9321C12.6683 43.9321 13.6664 40.1712 14.3272 37.6812L14.3277 37.6792C15.539 33.1525 17.1908 26.9812 22.8985 26.9812C28.5369 26.9812 29.8716 32.8316 30.8463 37.1038L30.8465 37.1045C32.0422 42.3966 32.8021 43.8405 34.3856 43.8405C34.7412 43.8405 35.8823 43.0224 36.8775 39.2868C37.7294 36.0892 38.2178 31.5979 38.2178 26.9645C38.2178 24.8532 39.0353 22.5579 39.9008 20.1277Z" fill="white"/>
</svg>