<svg width="53" height="40" viewBox="0 0 53 40" fill="none" xmlns="http://www.w3.org/2000/svg">
<path fill-rule="evenodd" clip-rule="evenodd" d="M33.125 2.22222H35.8192C36.899 2.22222 37.9105 2.75111 38.531 3.64222C40.4346 6.37111 46.375 15.5556 46.375 15.5556C46.375 15.5556 49.449 18.2422 50.7917 19.4022C52.6489 21.0089 53 22.2911 53 24.4444V30C53 31.84 51.516 33.3333 49.6875 33.3333H46.375C46.375 37.0133 43.407 40 39.75 40C36.093 40 33.125 37.0133 33.125 33.3333H19.875C19.875 37.0133 16.907 40 13.25 40C9.593 40 6.625 37.0133 6.625 33.3333H2.20833C0.991542 33.3333 0 32.34 0 31.1111V4.44444C0 3.21778 0.989333 2.22222 2.20833 2.22222H28.7083V0H33.125V2.22222ZM13.4024 30.5511C14.9261 30.5511 16.165 31.7956 16.165 33.3311C16.165 34.8644 14.9261 36.1111 13.4024 36.1111C11.8764 36.1111 10.6397 34.8644 10.6397 33.3311C10.6397 31.7956 11.8764 30.5511 13.4024 30.5511ZM39.9024 30.5511C41.4261 30.5511 42.665 31.7956 42.665 33.3311C42.665 34.8644 41.4261 36.1111 39.9024 36.1111C38.3764 36.1111 37.1398 34.8644 37.1398 33.3311C37.1398 31.7956 38.3764 30.5511 39.9024 30.5511ZM26.5 6.66667H4.41667V28.8889H8.31437C9.52675 27.5244 11.289 26.6667 13.25 26.6667C15.211 26.6667 16.9732 27.5244 18.1856 28.8889H34.8144C36.0267 27.5244 37.789 26.6667 39.75 26.6667C41.711 26.6667 43.4733 27.5244 44.6856 28.8889H48.5833V24.4444C48.5833 23.3533 48.5833 23.3533 47.912 22.7733L44.7254 20H26.5V6.66667ZM17.6667 8.88889V13.3333H22.0833V17.7778H17.6667V22.2222H13.25V17.7778H8.83333V13.3333H13.25V8.88889H17.6667ZM35.2406 6.66667H30.9167V15.5556H41.0993C39.2575 12.7244 36.5634 8.60222 35.2406 6.66667Z" fill="#E13856"/>
</svg>
